<svg width="1280" height="832" viewBox="0 0 1280 832" fill="none" xmlns="http://www.w3.org/2000/svg">
<g clip-path="url(#clip0_36_2)">
<rect width="1280" height="832" fill="url(#paint0_radial_36_2)"/>
<g clip-path="url(#clip1_36_2)">
<path d="M902.224 795.936C936.959 830.671 971.763 865.474 1006.5 900.209C1009.79 903.504 1011.85 903.639 1015.09 900.265C1037.75 877.473 1060.54 854.818 1083.19 832.163C1084.29 831.062 1085.12 828.998 1086.91 829.545C1089.31 830.298 1088.07 832.637 1088 834.219C1087.69 855.532 1087.52 876.846 1088.04 898.158C1088.24 904.689 1086.3 909.78 1081.41 914.669C1050.84 944.692 1020.75 975.058 990.384 1005.29C984.531 1011.14 983.707 1010.87 978.974 1003.79C967.244 986.554 955.582 969.384 944.334 951.938C930.683 931.953 916.964 912.036 903.519 891.981C893.71 877.627 883.832 863.342 874.091 848.919C867.232 838.754 860.854 828.382 853.719 818.356C844.252 805.032 836.093 790.813 825.593 778.11C823.191 775.158 820.79 772.068 819.076 768.701C815.374 761.694 809.467 758.541 802.044 757.04C787.06 754.038 772.215 750.486 757.232 747.209C751.184 745.843 745.136 744.615 739.157 743.318C735.514 742.567 734.967 740.781 737.515 738.095C753.904 721.432 770.224 704.7 787.093 688.655C789.434 686.313 791.015 686.38 793.694 688.232C796.99 690.427 799.599 693.31 802.276 695.988C835.569 729.281 868.794 762.506 902.087 795.799L902.224 795.936Z" fill="#811D42"/>
<path d="M1153.56 542.264C1119.51 508.215 1085.4 474.098 1051.35 440.05C1049.77 438.471 1048.19 436.755 1046.54 435.245C1044.55 433.254 1044.56 431.329 1046.62 429.401C1047.86 428.161 1049.1 426.784 1050.34 425.545C1065.63 410.258 1080.84 395.04 1096.13 379.754C1097.3 378.583 1098.41 376.106 1100.19 377.204C1101.5 377.958 1102.18 380.294 1102.52 382.013C1104.91 392.528 1106.96 403.113 1109.35 413.628C1112.35 427.099 1115.56 440.638 1118.5 454.178C1118.98 456.171 1120.07 457.544 1121.52 458.298C1127.08 460.833 1131.47 465.089 1136.76 468.037C1147.34 473.796 1156.54 481.482 1166.5 487.998C1174.75 493.348 1183.12 498.698 1191.09 504.461C1197.27 508.989 1203.66 513.173 1209.77 517.907C1214.3 521.475 1219.25 524.768 1224.54 527.579C1235.25 533.337 1244.59 541.298 1254.76 548.02C1263 553.507 1271.24 558.857 1279.41 564.414C1291.23 572.508 1302.97 580.671 1314.78 588.766C1323.57 594.802 1332.57 600.495 1341.36 606.532C1349.95 612.362 1358.4 618.331 1366.84 624.299C1368.28 625.328 1368.35 626.772 1367.59 628.079C1367.18 628.905 1366.35 629.594 1365.66 630.282C1334.33 661.613 1302.87 692.806 1271.95 724.412C1266.09 730.265 1259.36 730 1252.89 729.597C1240.11 728.792 1227.46 729.637 1214.67 729.794C1207.45 729.874 1200.16 729.885 1192.87 730.034C1191.36 730.036 1189.78 730.245 1189.09 728.734C1188.27 726.947 1190.06 726.12 1190.96 725.224C1212.85 703.327 1234.75 681.43 1256.58 659.464C1257.47 658.569 1258.37 657.537 1259.33 656.71C1262.84 653.748 1262.64 651.342 1259.35 648.047C1223.99 612.97 1188.92 577.617 1153.7 542.401L1153.56 542.264Z" fill="#811D42"/>
<path d="M1094.44 586.839C1102.19 594.596 1109.61 602.834 1117.91 610.041C1124.92 616.08 1126.76 623.571 1127.16 632.096C1127.96 648.458 1128.48 664.82 1130.25 681.043C1131.13 689.36 1130.91 697.817 1131.58 706.204C1132.66 722.015 1133.8 737.758 1135.09 753.5C1135.62 760.374 1135.13 767.319 1135.12 774.194C1135.12 776.257 1134.16 776.533 1132.44 776.605C1124.81 776.96 1117.17 776.353 1109.61 775.953C1101.78 775.552 1093.87 775.496 1086.1 774.339C1073.73 772.433 1061.28 773.896 1048.91 771.715C1043.07 770.693 1036.74 770.84 1030.62 770.506C1017.43 769.839 1004.29 768.828 991.165 767.817C980.092 770.103 973.227 763.926 966.156 756.58C950.026 739.761 933.344 723.492 917.007 707.017C915.977 705.987 913.778 705.028 914.744 703.239C915.64 701.519 917.701 702.753 919.213 702.889C948.567 705.249 977.989 707.679 1007.41 709.146C1027.35 709.94 1047.28 712.247 1067.15 712.285C1070.45 712.28 1071.42 711.041 1071.22 707.947C1069.6 683.749 1067.65 659.62 1066.72 635.421C1066.19 621.259 1064.43 607.236 1064.18 593.073C1063.99 582.554 1062.7 572.037 1062.02 561.451C1061.89 559.938 1061.14 557.808 1062.99 557.049C1064.78 556.359 1065.81 558.351 1066.84 559.38C1075.97 568.51 1085.1 577.64 1094.3 586.839C1094.3 586.839 1094.37 586.77 1094.44 586.701L1094.44 586.839Z" fill="#811D42"/>
<path d="M762.359 677.831C742.528 697.662 722.697 717.493 702.865 737.324C701.833 738.357 700.867 740.559 699.012 739.668C697.432 738.914 697.916 736.782 697.987 735.201C698.77 718.08 698.865 700.961 698.686 683.842C698.627 677.585 698.499 671.26 697.959 664.936C697.486 659.505 699.486 655.583 703.41 651.796C741.076 614.405 778.535 576.946 815.926 539.281C819.437 535.769 822.258 534.458 827.204 537.201C844.996 547.005 862.374 557.222 879.684 567.783C889.437 573.68 899.812 578.408 909.634 584.237C919.869 590.34 930.172 596.237 940.545 602.202C950.986 608.236 961.496 614.064 972.006 620.029C972.693 620.441 973.448 620.783 974.066 621.264C974.822 621.881 975.921 622.429 975.713 623.461C975.367 625.043 973.924 624.426 972.893 624.359C955.98 624.248 939.138 622.555 922.295 621.687C904.971 620.752 887.51 619.816 870.186 618.33C858.569 617.317 846.742 618.16 835.401 615.909C827.36 614.34 822.955 617.097 817.86 622.193C799.474 640.991 780.745 659.445 762.222 677.968L762.359 677.831Z" fill="#811D42"/>
<path d="M1098.46 339.668C1098.32 342.556 1096.6 343.452 1095.43 344.76C1057.56 382.633 1020.03 420.711 981.744 458.171C975.134 464.644 974.092 471.177 974.63 479.152C975.506 490.769 975.969 502.525 976.982 514.143C979.143 539.165 978.967 564.329 981.678 589.35C982.628 597.599 982.821 605.918 983.29 614.236C983.425 615.886 983.834 617.811 982.25 619.532C977.857 615.138 975.941 609.366 973.061 604.283C962.776 586.423 952.628 568.426 942.206 550.567C929.797 527.691 916.838 505.092 904.085 482.423C901.342 477.752 898.806 472.875 895.719 468.411C893.181 464.633 893.598 461.608 897.11 458.096C928.991 426.489 960.667 394.539 992.41 362.795C996.886 358.319 1001.91 354.255 1005.77 349.299C1011.83 341.452 1019.81 339.515 1029.02 339.638C1048.34 339.952 1067.73 340.059 1087.05 340.098C1090.76 340.092 1094.41 339.88 1098.26 339.737L1098.46 339.668Z" fill="#811D42"/>
</g>
<g clip-path="url(#clip2_36_2)">
<path d="M108.746 -93.1095C71.3685 -124.983 33.9167 -156.919 -3.46126 -188.792C-7.007 -191.816 -9.0735 -191.786 -12.0326 -188.167C-32.8101 -163.651 -53.7354 -139.262 -74.5236 -114.883C-75.5345 -113.698 -76.1966 -111.575 -78.0211 -111.979C-80.4783 -112.538 -79.4264 -114.969 -79.4808 -116.551C-80.8626 -137.822 -82.3815 -159.082 -84.5856 -180.286C-85.2987 -186.781 -83.7752 -192.009 -79.289 -197.27C-51.1916 -229.622 -23.6007 -262.277 4.27504 -294.817C9.64585 -301.116 10.4895 -300.908 15.7682 -294.231C28.8272 -277.976 41.8123 -261.784 54.4077 -245.285C69.5992 -226.443 84.8538 -207.676 99.845 -188.75C110.761 -175.218 121.74 -161.761 132.593 -148.155C140.236 -138.566 147.416 -128.732 155.323 -119.302C165.816 -106.771 175.076 -93.243 186.549 -81.4119C189.177 -78.6589 191.816 -75.7688 193.791 -72.5489C198.036 -65.8573 204.176 -63.1819 211.694 -62.2737C226.868 -60.4685 241.948 -58.1038 257.143 -56.0244C263.281 -55.1423 269.407 -54.3972 275.471 -53.578C279.161 -53.1184 279.849 -51.3807 277.521 -48.5019C262.504 -30.5923 247.561 -12.6197 232.017 4.7119C229.868 7.23125 228.287 7.29044 225.47 5.65634C222.01 3.7295 219.181 1.06167 216.3 -1.39497C180.474 -31.9455 144.721 -62.433 108.894 -92.9835L108.746 -93.1095Z" fill="#C42C64"/>
<path d="M-121.701 179.681C-85.0613 210.924 -48.3482 242.231 -11.7089 273.474C-10.0099 274.923 -8.30024 276.509 -6.53805 277.883C-4.39584 279.71 -4.24626 281.629 -6.15253 283.715C-7.28988 285.049 -8.41654 286.52 -9.55389 287.854C-23.5812 304.303 -37.5453 320.679 -51.5726 337.129C-52.6468 338.389 -53.5509 340.945 -55.4181 339.993C-56.7789 339.344 -57.6458 337.069 -58.122 335.384C-61.3377 325.091 -64.2162 314.701 -67.4319 304.408C-71.4941 291.218 -75.7673 277.976 -79.7663 264.711C-80.4009 262.762 -81.6042 261.48 -83.102 260.843C-88.8504 258.757 -93.5674 254.862 -99.0737 252.343C-110.076 247.44 -119.857 240.507 -130.301 234.801C-138.941 230.121 -147.718 225.452 -156.116 220.339C-162.636 216.314 -169.335 212.65 -175.802 208.414C-180.603 205.217 -185.793 202.326 -191.289 199.944C-202.428 195.052 -212.367 187.857 -223.033 181.961C-231.684 177.144 -240.324 172.464 -248.911 167.573C-261.328 160.44 -273.682 153.233 -286.099 146.1C-295.341 140.779 -304.761 135.817 -314.003 130.496C-323.023 125.364 -331.917 120.084 -340.81 114.803C-342.329 113.892 -342.51 112.458 -341.858 111.095C-341.511 110.239 -340.742 109.487 -340.11 108.746C-311.36 75.0308 -282.463 41.442 -254.146 7.48629C-248.775 1.18791 -242.038 0.917793 -235.564 0.806996C-222.754 0.596512 -210.209 -1.24792 -197.474 -2.41803C-190.283 -3.06973 -183.02 -3.65844 -175.766 -4.38424C-174.259 -4.50642 -172.699 -4.83982 -171.896 -3.38738C-170.935 -1.67186 -172.652 -0.704923 -173.474 0.258357C-193.567 23.8217 -213.66 47.385 -233.679 71.0113C-234.501 71.9746 -235.311 73.075 -236.207 73.9753C-239.472 77.206 -239.079 79.5883 -235.534 82.6119C-197.512 114.778 -159.743 147.24 -121.848 179.555L-121.701 179.681Z" fill="#C42C64"/>
<path d="M-66.2922 130.561C-74.6394 123.443 -82.6814 115.817 -91.5342 109.292C-98.9941 103.827 -101.427 96.5055 -102.5 88.0392C-104.594 71.7923 -106.413 55.5231 -109.456 39.4909C-110.993 31.2692 -111.444 22.8216 -112.781 14.5147C-115.106 -1.16171 -117.495 -16.764 -120.02 -32.3552C-121.102 -39.1652 -121.162 -46.1271 -121.696 -52.9816C-121.857 -55.0379 -120.919 -55.3899 -119.211 -55.5973C-111.631 -56.5565 -103.976 -56.5561 -96.406 -56.7557C-88.5618 -56.9776 -80.6757 -57.5477 -72.8413 -57.0101C-60.3567 -56.0905 -48.0654 -58.5352 -35.5594 -57.3415C-29.6545 -56.7854 -23.3606 -57.4334 -17.2349 -57.585C-4.02418 -57.9659 9.14476 -57.9985 22.3137 -58.0311C33.1704 -61.1873 40.5039 -55.5736 48.1338 -48.8114C65.5466 -33.3231 83.4648 -18.4277 101.056 -3.29878C102.164 -2.35392 104.432 -1.57202 103.612 0.287898C102.854 2.07371 100.702 1.00653 99.1841 0.991623C69.7357 0.964066 40.2136 0.873519 10.7662 1.7426C-9.171 2.53068 -29.2257 1.81079 -49.0355 3.34732C-52.3249 3.6139 -53.1881 4.92545 -52.7421 7.9933C-49.2172 31.9877 -45.3549 55.8858 -42.5153 79.9358C-40.8666 94.0115 -37.9952 107.85 -36.6207 121.948C-35.5978 132.419 -33.4785 142.801 -31.9706 153.301C-31.7161 154.798 -30.7966 156.862 -32.5881 157.766C-34.3164 158.595 -35.4993 156.691 -36.6073 155.746C-46.432 147.368 -56.2566 138.991 -66.1551 130.55C-66.1551 130.55 -66.2183 130.624 -66.2815 130.698L-66.2922 130.561Z" fill="#C42C64"/>
<path d="M257.53 13.5421C275.728 -7.79826 293.926 -29.1386 312.123 -50.479C313.071 -51.5905 313.859 -53.8617 315.779 -53.1205C317.414 -52.4943 317.1 -50.3305 317.154 -48.7484C317.73 -31.6197 318.992 -14.5466 320.528 2.50438C321.082 8.73639 321.711 15.0314 322.75 21.2931C323.652 26.6692 321.969 30.7373 318.357 34.8238C283.773 75.0816 249.4 115.391 215.111 155.901C211.889 159.68 209.18 161.21 204.033 158.868C185.52 150.505 167.387 141.697 149.295 132.54C139.105 127.434 128.389 123.543 118.135 118.511C107.449 113.238 96.7104 108.176 85.898 103.052C75.0117 97.8638 64.0729 92.8873 53.1234 87.7737C52.4061 87.4179 51.6256 87.1363 50.9714 86.7065C50.1696 86.1506 49.0304 85.6912 49.1558 84.6463C49.3756 83.042 50.8627 83.5423 51.896 83.5275C68.7645 82.2984 85.6874 82.6513 102.546 82.1817C119.89 81.7417 137.371 81.2907 154.757 81.3991C166.419 81.4886 178.141 79.7108 189.625 81.0564C197.765 81.9831 201.937 78.8859 206.613 73.4026C223.452 53.207 240.66 33.3264 257.657 13.3939L257.53 13.5421Z" fill="#C42C64"/>
<path d="M-50.7204 377.274C-50.8077 374.384 -49.1639 373.354 -48.1005 371.957C-13.3481 331.203 21.0456 290.271 56.2411 249.894C62.3176 242.918 62.8381 236.323 61.6702 228.416C59.8766 216.904 58.4835 205.222 56.5528 193.721C52.4155 168.949 50.5975 143.85 45.912 119.122C44.3116 110.975 43.4597 102.698 42.3336 94.4425C42.0684 92.8086 41.5077 90.9226 42.9503 89.0813C47.6779 93.1127 50.0454 98.7149 53.3188 103.554C64.9868 120.542 76.5285 137.679 88.3336 154.657C102.516 176.477 117.225 197.978 131.734 219.565C134.838 224.004 137.753 228.665 141.184 232.87C144.013 236.435 143.837 239.484 140.615 243.263C111.338 277.297 82.2941 311.656 53.1653 345.816C49.0582 350.632 44.3709 355.082 40.9179 360.328C35.4964 368.631 27.6968 371.194 18.5034 371.801C-0.779662 373.019 -20.1152 374.448 -39.3768 375.94C-43.0773 376.24 -46.6933 376.74 -50.5201 377.188L-50.7204 377.274Z" fill="#C42C64"/>
</g>
<rect x="640" width="640" height="832" fill="url(#paint1_linear_36_2)" fill-opacity="0.2"/>
</g>
<defs>
<radialGradient id="paint0_radial_36_2" cx="0" cy="0" r="1" gradientUnits="userSpaceOnUse" gradientTransform="rotate(32.7397) scale(1538.4 2366.76)">
<stop stop-color="#C62C65"/>
<stop offset="0.8" stop-color="#601631"/>
</radialGradient>
<linearGradient id="paint1_linear_36_2" x1="1272" y1="499.5" x2="640" y2="478.5" gradientUnits="userSpaceOnUse">
<stop offset="0.37"/>
</linearGradient>
<clipPath id="clip0_36_2">
<rect width="1280" height="832" fill="white"/>
</clipPath>
<clipPath id="clip1_36_2">
<rect width="565.394" height="453.558" fill="white" transform="translate(657 697.794) rotate(-45)"/>
</clipPath>
<clipPath id="clip2_36_2">
<rect width="565.394" height="453.558" fill="white" transform="translate(360.977 -14.7072) rotate(130.455)"/>
</clipPath>
</defs>
</svg>
