<svg width="1280" height="832" viewBox="0 0 1280 832" fill="none" xmlns="http://www.w3.org/2000/svg">
<g clip-path="url(#clip0_17_2)">
<rect width="1280" height="832" fill="url(#paint0_radial_17_2)"/>
<g clip-path="url(#clip1_17_2)">
<path d="M108.746 -93.1096C71.3685 -124.983 33.9167 -156.919 -3.46126 -188.793C-7.007 -191.816 -9.0735 -191.787 -12.0326 -188.167C-32.8101 -163.651 -53.7354 -139.262 -74.5236 -114.883C-75.5345 -113.698 -76.1966 -111.575 -78.0211 -111.979C-80.4783 -112.538 -79.4264 -114.969 -79.4808 -116.551C-80.8626 -137.822 -82.3815 -159.082 -84.5856 -180.286C-85.2987 -186.781 -83.7752 -192.009 -79.289 -197.27C-51.1916 -229.622 -23.6007 -262.277 4.27504 -294.817C9.64585 -301.116 10.4895 -300.908 15.7682 -294.231C28.8272 -277.976 41.8123 -261.784 54.4077 -245.285C69.5992 -226.443 84.8538 -207.676 99.845 -188.75C110.761 -175.218 121.74 -161.761 132.593 -148.155C140.236 -138.566 147.416 -128.732 155.323 -119.302C165.816 -106.771 175.076 -93.243 186.549 -81.412C189.177 -78.659 191.816 -75.7689 193.791 -72.549C198.036 -65.8574 204.176 -63.182 211.694 -62.2738C226.868 -60.4686 241.948 -58.1039 257.143 -56.0245C263.281 -55.1423 269.407 -54.3973 275.471 -53.5781C279.161 -53.1185 279.849 -51.3808 277.521 -48.502C262.504 -30.5924 247.561 -12.6198 232.017 4.71182C229.868 7.23117 228.287 7.29037 225.47 5.65626C222.01 3.72942 219.181 1.0616 216.3 -1.39504C180.474 -31.9456 144.721 -62.4331 108.894 -92.9836L108.746 -93.1096Z" fill="#C42C64"/>
<path d="M-121.701 179.681C-85.0616 210.924 -48.3484 242.23 -11.7092 273.474C-10.0102 274.923 -8.30048 276.508 -6.5383 277.883C-4.39608 279.71 -4.24651 281.629 -6.15277 283.715C-7.29012 285.049 -8.41678 286.52 -9.55413 287.853C-23.5814 304.303 -37.5455 320.679 -51.5729 337.129C-52.647 338.389 -53.5512 340.945 -55.4183 339.993C-56.7791 339.344 -57.646 337.069 -58.1222 335.383C-61.338 325.09 -64.2164 314.701 -67.4322 304.408C-71.4944 291.218 -75.7675 277.976 -79.7665 264.711C-80.4011 262.762 -81.6044 261.48 -83.1023 260.843C-88.8507 258.757 -93.5676 254.862 -99.074 252.342C-110.076 247.44 -119.857 240.507 -130.301 234.801C-138.941 230.121 -147.718 225.452 -156.116 220.338C-162.636 216.314 -169.335 212.65 -175.802 208.414C-180.603 205.217 -185.793 202.326 -191.289 199.944C-202.428 195.052 -212.368 187.856 -223.033 181.961C-231.684 177.144 -240.324 172.464 -248.911 167.573C-261.328 160.44 -273.682 153.233 -286.099 146.1C-295.341 140.778 -304.762 135.817 -314.003 130.496C-323.023 125.364 -331.917 120.083 -340.81 114.803C-342.33 113.892 -342.51 112.458 -341.858 111.094C-341.511 110.239 -340.742 109.486 -340.11 108.745C-311.361 75.0306 -282.463 41.4418 -254.146 7.48612C-248.775 1.18775 -242.038 0.917625 -235.565 0.806829C-222.754 0.596344 -210.209 -1.24809 -197.474 -2.4182C-190.284 -3.0699 -183.02 -3.65861 -175.766 -4.38441C-174.259 -4.50659 -172.699 -4.83999 -171.896 -3.38754C-170.935 -1.67203 -172.652 -0.705091 -173.474 0.258189C-193.567 23.8215 -213.66 47.3849 -233.679 71.0112C-234.501 71.9745 -235.312 73.0748 -236.207 73.9751C-239.472 77.2058 -239.08 79.5882 -235.534 82.6117C-197.512 114.778 -159.744 147.24 -121.849 179.555L-121.701 179.681Z" fill="#C42C64"/>
<path d="M-66.2919 130.561C-74.6392 123.443 -82.6812 115.817 -91.5339 109.292C-98.9938 103.827 -101.426 96.5054 -102.5 88.0392C-104.594 71.7923 -106.413 55.5231 -109.455 39.4909C-110.993 31.2692 -111.444 22.8216 -112.781 14.5147C-115.106 -1.16172 -117.494 -16.764 -120.02 -32.3552C-121.102 -39.1652 -121.162 -46.1271 -121.696 -52.9816C-121.856 -55.0379 -120.918 -55.3899 -119.21 -55.5973C-111.631 -56.5565 -103.976 -56.5561 -96.4058 -56.7557C-88.5615 -56.9776 -80.6755 -57.5477 -72.8411 -57.0101C-60.3565 -56.0905 -48.0651 -58.5352 -35.5592 -57.3415C-29.6542 -56.7854 -23.3604 -57.4334 -17.2347 -57.585C-4.02393 -57.9659 9.145 -57.9985 22.3139 -58.0311C33.1706 -61.1873 40.5042 -55.5737 48.1341 -48.8114C65.5468 -33.3232 83.4651 -18.4277 101.057 -3.29878C102.165 -2.35392 104.432 -1.57202 103.612 0.287894C102.855 2.07371 100.703 1.00652 99.1843 0.991619C69.736 0.964062 40.2138 0.873515 10.7664 1.74259C-9.17075 2.53068 -29.2254 1.81079 -49.0353 3.34731C-52.3246 3.6139 -53.1879 4.92545 -52.7419 7.9933C-49.2169 31.9877 -45.3547 55.8858 -42.515 79.9358C-40.8664 94.0115 -37.995 107.85 -36.6205 121.948C-35.5976 132.419 -33.4783 142.801 -31.9704 153.301C-31.7158 154.798 -30.7964 156.862 -32.5879 157.766C-34.3162 158.595 -35.499 156.691 -36.6071 155.746C-46.4317 147.368 -56.2564 138.991 -66.1549 130.55C-66.1549 130.55 -66.218 130.624 -66.2812 130.698L-66.2919 130.561Z" fill="#C42C64"/>
<path d="M257.53 13.542C275.728 -7.79834 293.926 -29.1387 312.123 -50.4791C313.071 -51.5906 313.859 -53.8617 315.779 -53.1206C317.414 -52.4944 317.1 -50.3306 317.154 -48.7485C317.73 -31.6198 318.992 -14.5467 320.528 2.5043C321.082 8.73631 321.711 15.0313 322.75 21.293C323.652 26.6691 321.969 30.7372 318.357 34.8238C283.773 75.0815 249.4 115.391 215.111 155.901C211.889 159.68 209.18 161.21 204.033 158.868C185.52 150.504 167.387 141.696 149.295 132.54C139.105 127.434 128.389 123.543 118.135 118.511C107.449 113.238 96.7104 108.176 85.898 103.051C75.0117 97.8638 64.0729 92.8872 53.1234 87.7736C52.4061 87.4179 51.6256 87.1362 50.9714 86.7064C50.1696 86.1506 49.0304 85.6911 49.1558 84.6462C49.3756 83.0419 50.8627 83.5422 51.896 83.5275C68.7645 82.2983 85.6874 82.6512 102.546 82.1816C119.89 81.7416 137.371 81.2906 154.757 81.399C166.419 81.4885 178.141 79.7107 189.625 81.0563C197.765 81.983 201.937 78.8858 206.613 73.4025C223.452 53.207 240.66 33.3263 257.657 13.3938L257.53 13.542Z" fill="#C42C64"/>
<path d="M-50.7204 377.274C-50.8077 374.384 -49.1639 373.354 -48.1005 371.957C-13.3481 331.203 21.0456 290.271 56.2411 249.894C62.3176 242.918 62.8381 236.323 61.6702 228.416C59.8766 216.904 58.4835 205.222 56.5528 193.721C52.4155 168.949 50.5975 143.85 45.912 119.122C44.3116 110.975 43.4597 102.697 42.3336 94.4425C42.0684 92.8085 41.5077 90.9226 42.9503 89.0812C47.6779 93.1126 50.0454 98.7149 53.3188 103.554C64.9868 120.542 76.5285 137.679 88.3336 154.657C102.516 176.477 117.225 197.978 131.734 219.565C134.838 224.004 137.753 228.665 141.184 232.87C144.013 236.435 143.837 239.484 140.615 243.263C111.338 277.297 82.2941 311.656 53.1653 345.816C49.0582 350.632 44.3709 355.082 40.9179 360.328C35.4964 368.631 27.6968 371.194 18.5034 371.801C-0.779662 373.019 -20.1152 374.448 -39.3768 375.94C-43.0773 376.24 -46.6933 376.74 -50.5201 377.188L-50.7204 377.274Z" fill="#C42C64"/>
</g>
</g>
<defs>
<radialGradient id="paint0_radial_17_2" cx="0" cy="0" r="1" gradientUnits="userSpaceOnUse" gradientTransform="rotate(32.7397) scale(1538.4 2366.76)">
<stop stop-color="#C62C65"/>
<stop offset="0.8" stop-color="#601631"/>
</radialGradient>
<clipPath id="clip0_17_2">
<rect width="1280" height="832" fill="white"/>
</clipPath>
<clipPath id="clip1_17_2">
<rect width="565.394" height="453.558" fill="white" transform="translate(360.977 -14.7073) rotate(130.455)"/>
</clipPath>
</defs>
</svg>
